<svg width="563" height="153" viewBox="0 0 563 153" fill="none" xmlns="http://www.w3.org/2000/svg">
<path d="M459.615 104.857L458.889 104.928L472.336 26.9867L472.447 26.3396L471.794 26.4041L461.135 27.4567L461.288 26.5791L473.328 25.3893L459.615 104.857ZM465.672 112.334L466.051 112.297L466.116 111.921L482.421 17.052L482.532 16.4052L481.879 16.4697L455.359 19.0886L454.981 19.126L454.916 19.5009L452.05 36.0616L451.938 36.709L452.592 36.6444L463.251 35.5912L449.924 113.255L449.813 113.902L450.466 113.837L465.672 112.334Z" fill="#667C4D" stroke="black"/>
<path d="M518.263 68.3368L529.793 67.1921L529.615 68.2457L517.813 69.4174L517.433 69.4551L517.369 69.8319L511.774 102.792L510.889 102.88L516.443 70.188L516.552 69.5422L515.901 69.6073L488.127 72.3829L525.273 23.2728L517.722 67.7561L517.612 68.4014L518.263 68.3368ZM478.674 80.8981L478.563 81.5441L479.216 81.479L507.476 78.6548L501.953 111.347L501.844 111.993L502.496 111.927L517.705 110.396L518.084 110.357L518.148 109.981L523.717 77.0406L535.606 75.8602L535.987 75.8224L536.051 75.4453L538.877 58.7124L538.986 58.0675L538.335 58.1321L526.719 59.2854L534.471 13.4365L534.581 12.788L533.927 12.8565L522.336 14.0697L522.12 14.0924L521.988 14.2666L480.748 69.053L480.675 69.1501L480.654 69.27L478.674 80.8981Z" fill="#667C4D" stroke="black"/>
<path d="M523.403 28.9833L522.513 28.5973L490.703 70.2275L490.004 71.142L491.149 71.0284L516.35 68.5261L516.73 68.4883L516.794 68.1112L523.403 28.9833ZM511.134 62.2034L503.734 62.9381L513.034 50.9532L511.134 62.2034Z" fill="#667C4D" stroke="black"/>
<path d="M246.229 86.6876L246.365 86.0404L245.705 86.0856L232.095 87.019L233.622 79.7971L239.034 79.4252L238.029 84.2298L237.893 84.8761L238.552 84.831L246.375 84.2954L246.752 84.2696L246.83 83.8997L249.652 70.5125L249.789 69.8653L249.129 69.9105L227.036 71.4247L226.658 71.4506L226.581 71.8211L221.537 95.9283L221.401 96.5748L222.06 96.5296L235.668 95.5964L233.543 105.486L228.192 105.854L229.495 99.7795L229.634 99.1305L228.971 99.1758L221.09 99.7153L220.714 99.7411L220.635 100.11L217.511 114.771L217.373 115.42L218.035 115.374L240.127 113.86L240.504 113.834L240.582 113.464L246.229 86.6876Z" fill="#D5D5D5" stroke="black"/>
<path d="M256.486 77.5896L256.349 78.2373L257.01 78.1921L263.873 77.7218L256.622 112.087L256.485 112.734L257.145 112.689L264.967 112.151L265.344 112.125L265.422 111.755L272.733 77.1122L279.879 76.6226L280.255 76.5968L280.334 76.2275L282.015 68.2902L282.153 67.6424L281.492 67.6878L258.623 69.2578L258.247 69.2836L258.169 69.6529L256.486 77.5896Z" fill="#D5D5D5" stroke="black"/>
<path d="M304.017 109.472L304.394 109.446L304.472 109.077L313.543 66.127L313.68 65.4795L313.02 65.5248L290.987 67.0383L290.61 67.0642L290.532 67.4338L281.461 110.382L281.325 111.03L281.985 110.985L289.807 110.446L290.183 110.42L290.261 110.051L294.207 91.518L299.558 91.1503L295.672 109.405L295.534 110.053L296.195 110.008L304.017 109.472ZM301.454 82.1397L296.102 82.5066L297.574 75.4091L302.926 75.0412L301.454 82.1397Z" fill="#D5D5D5" stroke="black"/>
<path d="M329.852 107.768L330.229 107.742L330.307 107.373L337.618 72.7296L344.764 72.2372L345.141 72.2112L345.219 71.8421L346.902 63.9069L347.039 63.259L346.378 63.3043L323.51 64.8744L323.133 64.9003L323.055 65.2696L321.373 73.2047L321.236 73.8525L321.897 73.8072L328.759 73.337L321.508 107.703L321.371 108.351L322.031 108.305L329.852 107.768Z" fill="#D5D5D5" stroke="black"/>
<path d="M346.347 105.998L346.211 106.645L346.871 106.6L354.692 106.064L355.069 106.038L355.147 105.669L364.218 62.719L364.354 62.0714L363.694 62.1169L355.872 62.6554L355.495 62.6814L355.417 63.0509L346.347 105.998Z" fill="#D5D5D5" stroke="black"/>
<path d="M364.659 104.809L364.522 105.456L365.182 105.411L387.215 103.901L387.592 103.875L387.67 103.505L396.74 60.5566L396.877 59.9093L396.217 59.9545L374.184 61.4647L373.807 61.4905L373.729 61.8602L364.659 104.809ZM375.278 95.8979L380.77 69.8366L386.122 69.4688L380.629 95.5301L375.278 95.8979Z" fill="#D5D5D5" stroke="black"/>
<path d="M405.526 102.714L405.902 102.688L405.981 102.319L409.604 85.2569L412.701 101.777L412.783 102.214L413.227 102.184L420.034 101.717L420.411 101.691L420.489 101.321L429.561 58.3726L429.698 57.725L429.037 57.7704L421.215 58.309L420.838 58.335L420.76 58.7053L417.134 76.0254L414.038 59.2448L413.957 58.8062L413.512 58.8367L406.705 59.304L406.328 59.3298L406.25 59.6995L397.181 102.648L397.045 103.296L397.705 103.25L405.526 102.714Z" fill="#D5D5D5" stroke="black"/>
<path d="M47.1871 37.29L46.8093 37.3115L46.7286 37.6811L45.608 42.8107L45.4671 43.4554L46.1263 43.418L452.599 20.3245L452.974 20.3032L453.057 19.9377L454.245 14.7209L454.393 14.0714L453.727 14.1093L47.1871 37.29Z" fill="#667C4D" stroke="black"/>
<path d="M27.7548 135.298L27.3779 135.323L27.2987 135.693L26.1978 140.835L26.0593 141.482L26.7195 141.438L438.57 113.731L438.943 113.706L439.025 113.341L440.193 108.11L440.339 107.458L439.672 107.503L27.7548 135.298Z" fill="#667C4D" stroke="black"/>
<path d="M64.4649 97.8097L70.8919 97.5272L68.4661 110.402L56.1249 111.445L65.2382 67.2531L89.1729 65.3215L89.5462 65.2914L89.6222 64.9247L92.4896 51.1016L92.6233 50.4567L91.9663 50.5011L54.9663 53.0011L54.9663 53.0011L54.9585 53.0017L48.9585 53.5017L48.2225 53.5631L48.5528 54.2236L52.4765 62.0711L45.6826 96.6983L45.6818 96.7023L39.511 125.637L39.3719 126.29L40.0369 126.24L77.0369 123.499L77.4097 123.471L77.4887 123.106L85.4887 86.1057L85.6296 85.454L84.9645 85.5013L66.2121 86.8351L65.8247 86.8627L65.7556 87.2448L63.9509 97.2212L63.8394 97.8372L64.4649 97.8097Z" fill="#667C4D" stroke="black"/>
<path d="M84.5107 122.503L84.3748 123.15L85.0348 123.104L98.1472 122.19L98.5235 122.164L98.6015 121.794L105.23 90.4647L114.903 89.7876L108.333 120.838L108.196 121.486L108.857 121.44L121.97 120.522L122.347 120.495L122.424 120.126L137.538 48.1027L137.674 47.4551L137.014 47.5012L100.081 50.0837L99.7038 50.1101L99.6262 50.4798L84.5107 122.503ZM108.244 76.0392L110.838 63.4484L120.512 62.7712L117.918 75.362L108.244 76.0392Z" fill="#667C4D" stroke="black"/>
<path d="M128.511 119.503L128.375 120.15L129.035 120.104L142.147 119.19L142.147 119.19L152.857 118.44L152.861 118.44L165.039 117.499L165.405 117.47L165.487 117.112L168.487 104.112L168.488 104.108L181.537 45.108L181.682 44.4545L181.014 44.5012L144.081 47.0837L143.704 47.1101L143.626 47.4798L128.511 119.503ZM155.586 103.52L145.729 104.011L149.23 87.4647L158.911 86.787L155.586 103.52ZM152.244 73.0392L154.838 60.4484L164.512 59.7712L161.918 72.362L152.244 73.0392Z" fill="#667C4D" stroke="black"/>
<path d="M198.5 68.9189V44.5V43.9768L197.977 44.0005L186.977 44.5005L186.462 44.524L186.501 45.0387L189.496 83.644L183.01 116.403L182.876 117.078L183.56 116.996L196.06 115.496L196.407 115.455L196.487 115.114L203.796 83.816L218.47 43.1698L218.725 42.4649L217.976 42.5006L207.476 43.0006L207.134 43.0169L207.026 43.3419L198.5 68.9189Z" fill="#667C4D" stroke="black"/>
</svg>
